<svg xmlns="http://www.w3.org/2000/svg" width="88.157" height="19.172" viewBox="0 0 88.157 19.172">
  <defs>
    <style>
      .cls-1 {
        fill: #161615;
      }
    </style>
  </defs>
  <g id="logo" transform="translate(-260.274 -250.495)">
    <path id="패스_3225" data-name="패스 3225" class="cls-1" d="M273.279,256.478a3.95,3.95,0,0,1-1.447,3.1,1.946,1.946,0,0,1,.8.539,3.955,3.955,0,0,1,.583.849,3.867,3.867,0,0,1,.346.984,3.95,3.95,0,0,1,.08.954v2.11a5.268,5.268,0,0,1-.461,1.949,3.862,3.862,0,0,1-1.043,1.363,4.315,4.315,0,0,1-1.56.8,7.148,7.148,0,0,1-2,.264h-7.455a.769.769,0,0,1-.608-.277.882.882,0,0,1-.241-.6V250.7h7.82a10.427,10.427,0,0,1,1.777.161,5.341,5.341,0,0,1,1.686.573,3.667,3.667,0,0,1,1.252,1.112,2.885,2.885,0,0,1,.47,1.754Zm-9.747-3.1v5.16h3.828a7.962,7.962,0,0,0,1.078-.069,2.07,2.07,0,0,0,.872-.311,1.687,1.687,0,0,0,.587-.677,2.72,2.72,0,0,0,.216-1.193v-1.076a1.634,1.634,0,0,0-.25-.954,1.728,1.728,0,0,0-.656-.548,2.958,2.958,0,0,0-.894-.264,7.026,7.026,0,0,0-.975-.069Zm0,7.727v5.368c0,.122.09.183.275.183H268a2.233,2.233,0,0,0,1.011-.229,2.871,2.871,0,0,0,.8-.6,2.654,2.654,0,0,0,.526-.814,2.319,2.319,0,0,0,.185-.885v-.686a1.748,1.748,0,0,0-.22-.828,2.906,2.906,0,0,0-.585-.757,3.026,3.026,0,0,0-.837-.55,2.43,2.43,0,0,0-.973-.206Z" transform="translate(0 0.186)"/>
    <path id="패스_3226" data-name="패스 3226" class="cls-1" d="M281.27,253.372h-9.313v5.066h8.327v2.2c0,.29-.124.436-.367.436h-7.96v5.366c0,.122.071.183.206.183h9.107v2.314a.457.457,0,0,1-.115.311.341.341,0,0,1-.254.126H269.572a.742.742,0,0,1-.562-.264.874.874,0,0,1-.239-.61v-17.8h12.5Z" transform="translate(7.742 0.196)"/>
    <path id="패스_3227" data-name="패스 3227" class="cls-1" d="M289.046,253.658q-.892-.092-1.856-.172t-1.9-.115c-.627-.023-1.237-.034-1.823-.034s-1.135.021-1.64.069q-2.411.206-2.41,1.9a1.946,1.946,0,0,0,.254,1.022,2.38,2.38,0,0,0,.688.732,5.138,5.138,0,0,0,1.009.55c.382.161.8.319,1.236.472l3.327,1.193a11.465,11.465,0,0,1,1.835.826,5.478,5.478,0,0,1,1.363,1.078,4.173,4.173,0,0,1,.85,1.433,5.664,5.664,0,0,1,.287,1.869,4.588,4.588,0,0,1-1.319,3.484,5.868,5.868,0,0,1-3.727,1.447,36.2,36.2,0,0,1-4.151.08q-2.087-.083-4.243-.289v-2.8q1.789.184,3.5.275t3.429.046c.474-.015.919-.05,1.342-.1a3.355,3.355,0,0,0,1.1-.321,1.88,1.88,0,0,0,.747-.677,2.122,2.122,0,0,0,.273-1.147,2.09,2.09,0,0,0-.262-1.057,2.748,2.748,0,0,0-.69-.791,4.332,4.332,0,0,0-.961-.562c-.359-.151-.709-.281-1.043-.388l-2.913-.965a19.523,19.523,0,0,1-2.1-.812,7.092,7.092,0,0,1-1.686-1.066,4.566,4.566,0,0,1-1.112-1.424,3.973,3.973,0,0,1-.38-1.879,5.385,5.385,0,0,1,.449-2.213,3.763,3.763,0,0,1,1.181-1.468,5.026,5.026,0,0,1,1.823-.826,12.69,12.69,0,0,1,2.372-.333q1.766-.092,3.545-.023t3.61.25Z" transform="translate(14.387 0.139)"/>
    <path id="패스_3228" data-name="패스 3228" class="cls-1" d="M289.523,269.38V253.4H283.95V250.71h14.469V253.4h-5.594v15.547a.429.429,0,0,1-.115.334.441.441,0,0,1-.3.1Z" transform="translate(21.572 0.196)"/>
    <path id="패스_3229" data-name="패스 3229" class="cls-1" d="M304.368,252.427a2.446,2.446,0,0,1-.161.782q-.16.459-.275.757L297.075,269.1a.569.569,0,0,1-.55.321h-2.8l7.316-15.893a.194.194,0,0,0-.011-.195.2.2,0,0,0-.172-.08h-8.485v-2.592h11.994Z" transform="translate(29.247 0.153)"/>
    <path id="패스_3230" data-name="패스 3230" class="cls-1" d="M312.394,264.072a6.719,6.719,0,0,1-.5,2.809,4.156,4.156,0,0,1-1.388,1.707,5.293,5.293,0,0,1-2.087.85,14.085,14.085,0,0,1-2.6.229,15.222,15.222,0,0,1-2.509-.183,20.811,20.811,0,0,1-2.353-.55v-2.89q1.238.39,2.362.642a10.445,10.445,0,0,0,2.3.252,12.467,12.467,0,0,0,1.443-.08,3.33,3.33,0,0,0,1.216-.367,2.1,2.1,0,0,0,.837-.837,2.955,2.955,0,0,0,.287-1.514v-1.493a8.129,8.129,0,0,1-1.089.266q-.585.1-1.158.149t-1.078.057a5.634,5.634,0,0,1-.849-.034,15.19,15.19,0,0,1-2.007-.312,3.886,3.886,0,0,1-2.924-2.544,8.357,8.357,0,0,1-.459-3.062v-1.011a8.555,8.555,0,0,1,.31-2.406,4.151,4.151,0,0,1,1.021-1.777,4.542,4.542,0,0,1,1.892-1.1,9.61,9.61,0,0,1,2.9-.378,18.022,18.022,0,0,1,2.958.206,4.459,4.459,0,0,1,2,.8,3.38,3.38,0,0,1,1.135,1.653,8.715,8.715,0,0,1,.355,2.727Zm-3.027-7.889a5.246,5.246,0,0,0-.16-1.4,1.958,1.958,0,0,0-.562-.94,2.379,2.379,0,0,0-1.078-.527,7.451,7.451,0,0,0-1.686-.161,4.743,4.743,0,0,0-1.546.206,1.834,1.834,0,0,0-.9.619,2.3,2.3,0,0,0-.413,1.009,8.132,8.132,0,0,0-.1,1.374v.85a5.332,5.332,0,0,0,.22,1.7,2.13,2.13,0,0,0,.629.988,2.274,2.274,0,0,0,.975.47,5.718,5.718,0,0,0,1.25.126,8.472,8.472,0,0,0,1.688-.138,2.218,2.218,0,0,0,1.032-.482,1.766,1.766,0,0,0,.514-.917,6.1,6.1,0,0,0,.138-1.4Z" transform="translate(36.037 0)"/>
  </g>
</svg>
